<?xml version="1.0" encoding="UTF-8" standalone="no"?>
<svg width="1031px" height="1027px" viewBox="0 0 1031 1027" version="1.1" xmlns="http://www.w3.org/2000/svg" xmlns:xlink="http://www.w3.org/1999/xlink">
    <!-- Generator: Sketch 3.8.3 (29802) - http://www.bohemiancoding.com/sketch -->
    <title>logo</title>
    <desc>Created with Sketch.</desc>
    <defs>
        <path d="M99.2248062,27 L0,27 L0,427 L198.449612,427 L198.449612,225.449612 L400,225.449612 L400,27 L99.2248062,27 Z" id="path-1"></path>
        <mask id="mask-2" maskContentUnits="userSpaceOnUse" maskUnits="objectBoundingBox" x="0" y="0" width="400" height="400" fill="white">
            <use xlink:href="#path-1"></use>
        </mask>
        <path d="M99.2248062,626.378882 L0,626.378882 L0,1026.99888 L198.449612,1026.99888 L198.449612,825.136089 L400,825.136089 L400,626.378882 L99.2248062,626.378882 Z" id="path-3"></path>
        <mask id="mask-4" maskContentUnits="userSpaceOnUse" maskUnits="objectBoundingBox" x="0" y="0" width="400" height="400.619995" fill="white">
            <use xlink:href="#path-3"></use>
        </mask>
        <path d="M698.603688,27 L599.378882,27 L599.378882,427 L797.828494,427 L797.828494,225.449612 L999.378882,225.449612 L999.378882,27 L698.603688,27 Z" id="path-5"></path>
        <mask id="mask-6" maskContentUnits="userSpaceOnUse" maskUnits="objectBoundingBox" x="0" y="0" width="400" height="400" fill="white">
            <use xlink:href="#path-5"></use>
        </mask>
        <path d="M698.603688,626.378882 L599.378882,626.378882 L599.378882,1026.37888 L797.828494,1026.37888 L797.828494,824.828494 L999.378882,824.828494 L999.378882,626.378882 L698.603688,626.378882 Z" id="path-7"></path>
        <mask id="mask-8" maskContentUnits="userSpaceOnUse" maskUnits="objectBoundingBox" x="0" y="0" width="400" height="400" fill="white">
            <use xlink:href="#path-7"></use>
        </mask>
        <path d="M130.224806,0 L31,0 L31,400 L229.449612,400 L229.449612,198.449612 L431,198.449612 L431,0 L130.224806,0 Z" id="path-9"></path>
        <mask id="mask-10" maskContentUnits="userSpaceOnUse" maskUnits="objectBoundingBox" x="0" y="0" width="400" height="400" fill="white">
            <use xlink:href="#path-9"></use>
        </mask>
        <path d="M130.224806,599.378882 L31,599.378882 L31,999.998877 L229.449612,999.998877 L229.449612,798.136089 L431,798.136089 L431,599.378882 L130.224806,599.378882 Z" id="path-11"></path>
        <mask id="mask-12" maskContentUnits="userSpaceOnUse" maskUnits="objectBoundingBox" x="0" y="0" width="400" height="400.619995" fill="white">
            <use xlink:href="#path-11"></use>
        </mask>
        <path d="M729.603688,0 L630.378882,0 L630.378882,400 L828.828494,400 L828.828494,198.449612 L1030.37888,198.449612 L1030.37888,0 L729.603688,0 Z" id="path-13"></path>
        <mask id="mask-14" maskContentUnits="userSpaceOnUse" maskUnits="objectBoundingBox" x="0" y="0" width="400" height="400" fill="white">
            <use xlink:href="#path-13"></use>
        </mask>
        <path d="M729.603688,599.378882 L630.378882,599.378882 L630.378882,999.378882 L828.828494,999.378882 L828.828494,797.828494 L1030.37888,797.828494 L1030.37888,599.378882 L729.603688,599.378882 Z" id="path-15"></path>
        <mask id="mask-16" maskContentUnits="userSpaceOnUse" maskUnits="objectBoundingBox" x="0" y="0" width="400" height="400" fill="white">
            <use xlink:href="#path-15"></use>
        </mask>
    </defs>
    <g id="Page-1" stroke="none" stroke-width="1" fill="none" fill-rule="evenodd">
        <g id="logo">
            <ellipse id="Oval-1" fill="#E74C3C" cx="516.621118" cy="515.621118" rx="100" ry="100"></ellipse>
            <ellipse id="Oval-1-Copy" stroke="#000000" stroke-width="8" cx="531.621118" cy="500.621118" rx="100" ry="100"></ellipse>
            <use id="Combined-Shape" stroke="#979797" mask="url(#mask-2)" stroke-width="2" fill="#E74C3C" xlink:href="#path-1"></use>
            <use id="Combined-Shape-Copy-2" stroke="#979797" mask="url(#mask-4)" stroke-width="2" fill="#E74C3C" transform="translate(200.000000, 826.688880) scale(-1, -1) translate(-200.000000, -826.688880) " xlink:href="#path-3"></use>
            <use id="Combined-Shape-Copy" stroke="#979797" mask="url(#mask-6)" stroke-width="2" fill="#E74C3C" transform="translate(799.378882, 227.000000) scale(-1, 1) translate(-799.378882, -227.000000) " xlink:href="#path-5"></use>
            <use id="Combined-Shape-Copy-3" stroke="#979797" mask="url(#mask-8)" stroke-width="2" fill="#E74C3C" transform="translate(799.378882, 826.378882) scale(-1, -1) translate(-799.378882, -826.378882) " xlink:href="#path-7"></use>
            <use id="Combined-Shape-Copy-7" stroke="#000000" mask="url(#mask-10)" stroke-width="16" xlink:href="#path-9"></use>
            <use id="Combined-Shape-Copy-6" stroke="#000000" mask="url(#mask-12)" stroke-width="16" transform="translate(231.000000, 799.688880) scale(-1, -1) translate(-231.000000, -799.688880) " xlink:href="#path-11"></use>
            <use id="Combined-Shape-Copy-5" stroke="#000000" mask="url(#mask-14)" stroke-width="16" transform="translate(830.378882, 200.000000) scale(-1, 1) translate(-830.378882, -200.000000) " xlink:href="#path-13"></use>
            <use id="Combined-Shape-Copy-4" stroke="#000000" mask="url(#mask-16)" stroke-width="16" transform="translate(830.378882, 799.378882) scale(-1, -1) translate(-830.378882, -799.378882) " xlink:href="#path-15"></use>
        </g>
    </g>
</svg>